<?xml version="1.0" encoding="UTF-8" standalone="no"?>
<!DOCTYPE svg PUBLIC "-//W3C//DTD SVG 1.1//EN" "http://www.w3.org/Graphics/SVG/1.1/DTD/svg11.dtd">
<!-- Created with Vectornator (http://vectornator.io/) -->
<svg height="100%" stroke-miterlimit="10" style="fill-rule:nonzero;clip-rule:evenodd;stroke-linecap:round;stroke-linejoin:round;" version="1.1" viewBox="0 0 131 26" width="100%" xml:space="preserve" xmlns="http://www.w3.org/2000/svg" xmlns:vectornator="http://vectornator.io" xmlns:xlink="http://www.w3.org/1999/xlink">
<defs/>
<clipPath id="ArtboardFrame">
<rect height="26" width="131" x="0" y="0"/>
</clipPath>
<g clip-path="url(#ArtboardFrame)" id="Katman-1" vectornator:layerName="Katman 1">
<g fill="#9869ec" opacity="1" stroke="none">
<path d="M20.3725 0.472805L20.3725 5.53531L16.4662 5.53531L16.4662 25.7697L9.8881 25.7697L9.8881 5.53531L5.99747 5.53531L5.99747 0.472805L20.3725 0.472805Z"/>
<path d="M31.9506 0.472805L35.7162 25.7697L28.9818 25.7697L28.6537 21.2228L26.2943 21.2228L25.9037 25.7697L19.0912 25.7697L22.435 0.472805L31.9506 0.472805ZM28.4662 16.7384C28.1329 13.8738 27.7996 10.3374 27.4662 6.12906C26.7996 10.9624 26.3829 14.4988 26.2162 16.7384L28.4662 16.7384Z"/>
<path d="M57.1381 0.472805L57.1381 25.7697L51.3881 25.7697L51.3881 8.69156L49.0912 25.7697L45.0131 25.7697L42.5912 9.08218L42.5912 25.7697L36.8412 25.7697L36.8412 0.472805L45.3568 0.472805C45.6068 1.99364 45.8725 3.78531 46.1537 5.84781L47.06 12.2853L48.56 0.472805L57.1381 0.472805Z"/>
</g>
<g fill="#dddddd" opacity="1" stroke="none">
<path d="M66.5207 9.11811L60.2287 9.11811L60.2287 7.64057C60.2287 5.93614 60.4252 4.62185 60.8181 3.6977C61.211 2.77355 61.9995 1.9573 63.1838 1.24897C64.368 0.540636 65.9064 0.186469 67.799 0.186469C70.0679 0.186469 71.7779 0.587674 72.9289 1.39008C74.0799 2.19249 74.7717 3.17752 75.0041 4.34516C75.2365 5.5128 75.3527 7.91726 75.3527 11.5585L75.3527 22.6152L68.8283 22.6152L68.8283 20.6562C68.4188 21.442 67.8903 22.0314 67.2429 22.4243C66.5954 22.8172 65.8234 23.0136 64.9269 23.0136C63.7538 23.0136 62.6774 22.6844 61.6979 22.0258C60.7184 21.3673 60.2287 19.9257 60.2287 17.7011L60.2287 15.8915C60.2287 14.2425 60.4888 13.1191 61.009 12.5214C61.5292 11.9238 62.8185 11.2265 64.8771 10.4296C67.0796 9.56635 68.2583 8.9853 68.4133 8.68647C68.5682 8.38764 68.6457 7.77892 68.6457 6.8603C68.6457 5.70926 68.5599 4.95942 68.3884 4.61079C68.2168 4.26215 67.9318 4.08784 67.5334 4.08784C67.0796 4.08784 66.7974 4.23448 66.6867 4.52778C66.576 4.82107 66.5207 5.58198 66.5207 6.81049L66.5207 9.11811ZM68.6457 12.1396C67.5721 12.9254 66.9496 13.5839 66.778 14.1152C66.6065 14.6464 66.5207 15.4101 66.5207 16.4062C66.5207 17.5462 66.5954 18.2822 66.7448 18.6142C66.8942 18.9462 67.1903 19.1123 67.633 19.1123C68.0536 19.1123 68.3275 18.9822 68.4548 18.7221C68.5821 18.462 68.6457 17.7786 68.6457 16.6718L68.6457 12.1396Z"/>
<path d="M84.4836 0.584907L84.3674 2.52729C84.965 1.74148 85.6236 1.15489 86.343 0.767524C87.0624 0.380154 87.8482 0.186469 88.7004 0.186469C89.7407 0.186469 90.64 0.465929 91.3981 1.02485C92.1563 1.58377 92.6294 2.22846 92.8176 2.95893C93.0057 3.6894 93.0998 4.92898 93.0998 6.67768L93.0998 15.958C93.0998 17.9612 92.9808 19.3862 92.7429 20.2329C92.5049 21.0795 92.0179 21.7547 91.2819 22.2582C90.5459 22.7618 89.6577 23.0136 88.6174 23.0136C87.7873 23.0136 87.0181 22.8199 86.3098 22.4326C85.6014 22.0452 84.954 21.4697 84.3674 20.706L84.3674 25.7529L77.6603 25.7529L77.6603 0.584907L84.4836 0.584907ZM86.3928 6.99311C86.3928 5.63178 86.343 4.80724 86.2433 4.51948C86.1437 4.23172 85.867 4.08784 85.4133 4.08784C84.9706 4.08784 84.6856 4.25385 84.5583 4.58588C84.431 4.91791 84.3674 5.72032 84.3674 6.99311L84.3674 16.124C84.3674 17.4521 84.4338 18.2822 84.5666 18.6142C84.6994 18.9462 84.9872 19.1123 85.4299 19.1123C85.8615 19.1123 86.1299 18.9601 86.235 18.6557C86.3402 18.3513 86.3928 17.6126 86.3928 16.4394L86.3928 6.99311Z"/>
<path d="M102.131 0.584907L102.015 2.52729C102.612 1.74148 103.271 1.15489 103.99 0.767524C104.71 0.380154 105.496 0.186469 106.348 0.186469C107.388 0.186469 108.287 0.465929 109.046 1.02485C109.804 1.58377 110.277 2.22846 110.465 2.95893C110.653 3.6894 110.747 4.92898 110.747 6.67768L110.747 15.958C110.747 17.9612 110.628 19.3862 110.39 20.2329C110.152 21.0795 109.665 21.7547 108.929 22.2582C108.193 22.7618 107.305 23.0136 106.265 23.0136C105.435 23.0136 104.666 22.8199 103.957 22.4326C103.249 22.0452 102.601 21.4697 102.015 20.706L102.015 25.7529L95.3078 25.7529L95.3078 0.584907L102.131 0.584907ZM104.04 6.99311C104.04 5.63178 103.99 4.80724 103.891 4.51948C103.791 4.23172 103.515 4.08784 103.061 4.08784C102.618 4.08784 102.333 4.25385 102.206 4.58588C102.078 4.91791 102.015 5.72032 102.015 6.99311L102.015 16.124C102.015 17.4521 102.081 18.2822 102.214 18.6142C102.347 18.9462 102.635 19.1123 103.077 19.1123C103.509 19.1123 103.777 18.9601 103.883 18.6557C103.988 18.3513 104.04 17.6126 104.04 16.4394L104.04 6.99311Z"/>
<path d="M59.3322 24.3251L111.76 24.3251L111.76 26.0185L59.3322 26.0185L59.3322 24.3251Z"/>
</g>
</g>
</svg>
